<svg width="66" height="26" viewBox="0 0 66 26" fill="none" xmlns="http://www.w3.org/2000/svg">
<path d="M12.3715 14.08L10.3315 14.008C9.3235 14.008 8.5475 14.336 8.0035 14.992C7.6195 15.472 7.1075 16.256 6.4675 17.344C5.8435 18.432 5.5315 19.296 5.5315 19.936C5.5315 20.528 6.1155 20.824 7.2835 20.824C8.0035 20.824 8.7715 20.688 9.5875 20.416C11.2355 19.872 12.5395 18.832 13.4995 17.296C13.6115 17.152 13.8035 17.08 14.0755 17.08C14.3475 17.08 14.4835 17.24 14.4835 17.56C14.4835 17.864 14.2275 18.512 13.7155 19.504C13.2035 20.496 12.7475 21.24 12.3475 21.736C12.1395 21.992 11.7315 22.136 11.1235 22.168C10.5315 22.2 9.6195 22.216 8.3875 22.216H6.0355L4.6675 22.192L4.0195 22.144C4.0035 22.144 3.9475 22.144 3.8515 22.144C3.7555 22.144 3.6355 22.216 3.4915 22.36C2.9635 22.824 2.2115 23.056 1.2355 23.056C0.7715 23.056 0.5395 22.952 0.5395 22.744V22.672C0.5395 22.496 1.0915 21.456 2.1955 19.552C3.3155 17.632 4.5555 15.496 5.9155 13.144C7.2755 10.792 8.1475 9.184 8.5315 8.32C8.9155 7.44 9.1075 6.688 9.1075 6.064V5.8C9.1075 5.528 10.8115 5.392 14.2195 5.392C15.3395 5.392 16.3155 5.408 17.1475 5.44C17.3875 5.168 18.0035 5.032 18.9955 5.032C19.4115 5.032 19.6195 5.136 19.6195 5.344C19.6195 5.712 19.2515 6.456 18.5155 7.576C17.7955 8.68 17.1635 9.432 16.6195 9.832C16.4435 9.976 16.2195 10.048 15.9475 10.048C15.6755 10.048 15.5395 9.992 15.5395 9.88C15.5395 9.832 15.5635 9.768 15.6115 9.688C15.8675 9.192 15.9955 8.632 15.9955 8.008C15.9955 7.128 15.3875 6.688 14.1715 6.688C13.4355 6.688 12.8515 6.88 12.4195 7.264C12.0035 7.648 11.5875 8.184 11.1715 8.872C10.7555 9.56 10.4435 10.152 10.2355 10.648C10.0435 11.144 9.9475 11.456 9.9475 11.584C9.9475 11.968 10.1315 12.208 10.4995 12.304C10.8835 12.384 11.6355 12.424 12.7555 12.424L14.5315 12.352C14.6915 12.352 14.7715 12.416 14.7715 12.544C14.7715 12.656 14.6835 12.856 14.5075 13.144C14.3475 13.416 14.1795 13.608 14.0035 13.72C13.6515 13.96 13.1075 14.08 12.3715 14.08ZM21.4863 19.84C21.4863 19.728 21.4463 19.672 21.3663 19.672H21.3183L20.9583 19.84C19.9183 20.848 19.0703 21.544 18.4143 21.928C17.7583 22.296 17.0783 22.48 16.3743 22.48C16.0543 22.48 15.7663 22.384 15.5103 22.192C15.2543 22 15.1263 21.632 15.1263 21.088C15.1263 20.544 15.4063 19.584 15.9663 18.208C16.5263 16.832 17.2223 15.52 18.0543 14.272C18.8863 13.008 19.6143 12.296 20.2383 12.136C20.4463 12.072 20.7263 12.04 21.0783 12.04C21.4303 12.04 21.6063 12.136 21.6063 12.328C21.6063 12.392 21.3183 12.84 20.7422 13.672C20.1663 14.488 19.5903 15.424 19.0143 16.48C18.4543 17.536 18.1743 18.328 18.1743 18.856C18.1743 19.384 18.3583 19.648 18.7263 19.648C19.4143 19.648 20.2063 19.2 21.1023 18.304C21.9983 17.408 23.1743 15.992 24.6303 14.056C25.0303 13.48 25.6703 13.192 26.5503 13.192C27.0303 13.192 27.2703 13.288 27.2703 13.48C27.2703 13.528 27.2463 13.592 27.1983 13.672C24.6863 17.544 23.1743 20.32 22.6623 22C22.5983 22.192 22.5183 22.288 22.4223 22.288H22.3503C21.7103 22.288 21.3903 21.776 21.3903 20.752L21.4863 19.84ZM33.6863 18.952C33.3823 18.952 33.1503 18.8 32.9903 18.496C32.8303 18.176 32.7503 17.872 32.7503 17.584C32.7503 17.28 32.8463 16.936 33.0383 16.552C33.0383 16.344 32.9583 16.24 32.7983 16.24C32.1743 16.24 31.4623 16.616 30.6623 17.368C29.8623 18.104 29.1903 18.872 28.6463 19.672C28.1023 20.456 27.6063 21.248 27.1583 22.048C26.8863 22.528 26.3263 22.768 25.4783 22.768C25.0463 22.768 24.8303 22.672 24.8303 22.48C24.8303 22.048 25.6143 20.44 27.1823 17.656C28.7663 14.856 29.8143 13.36 30.3263 13.168C30.6783 12.992 31.0703 12.904 31.5023 12.904C31.9503 12.904 32.1743 13 32.1743 13.192C32.1743 13.368 31.9903 13.72 31.6223 14.248C31.2543 14.776 31.0703 15.112 31.0703 15.256C31.0703 15.4 31.1263 15.472 31.2383 15.472C31.3023 15.472 31.4783 15.376 31.7663 15.184C32.4703 14.656 33.3343 14.112 34.3583 13.552L34.5743 13.264C34.9583 12.784 35.5103 12.544 36.2303 12.544C36.9663 12.544 37.3343 12.688 37.3343 12.976C37.3023 13.056 37.2223 13.184 37.0943 13.36C35.8303 15.088 34.7663 16.896 33.9023 18.784C33.8383 18.896 33.7663 18.952 33.6863 18.952ZM38.1111 23.368C37.1831 23.368 36.5031 23.088 36.0711 22.528C35.6391 21.984 35.4231 21.312 35.4231 20.512C35.4231 19.696 35.5991 18.848 35.9511 17.968C36.3031 17.072 36.7831 16.208 37.3911 15.376C38.0151 14.544 38.8231 13.848 39.8151 13.288C40.8231 12.712 41.9031 12.424 43.0551 12.424C43.5831 12.424 43.9831 12.592 44.2551 12.928C44.5271 13.248 44.6631 13.632 44.6631 14.08C44.6631 15.008 44.3351 15.872 43.6791 16.672C43.0231 17.472 42.2951 18.08 41.4951 18.496C40.6951 18.912 39.9831 19.152 39.3591 19.216C38.7511 19.264 38.3431 19.376 38.1351 19.552C37.9271 19.728 37.8231 20.08 37.8231 20.608C37.8231 21.136 37.9431 21.536 38.1831 21.808C38.4231 22.08 38.6631 22.264 38.9031 22.36C39.1431 22.456 39.2631 22.552 39.2631 22.648C39.2631 22.872 39.1431 23.048 38.9031 23.176C38.6631 23.304 38.3991 23.368 38.1111 23.368ZM42.3351 14.68C42.3351 14.184 42.1111 13.936 41.6631 13.936C41.0231 13.936 40.3111 14.384 39.5271 15.28C38.7591 16.176 38.3751 16.984 38.3751 17.704C38.3751 17.88 38.5111 17.968 38.7831 17.968C39.4391 17.968 40.1911 17.632 41.0391 16.96C41.9031 16.288 42.3351 15.528 42.3351 14.68ZM52.264 24.928C52.264 25.024 52.184 25.088 52.024 25.12C51.288 25.12 50.632 24.344 50.056 22.792C49.48 21.24 49.192 19.888 49.192 18.736C49.192 18.56 49.28 18.448 49.456 18.4C50.112 18.176 50.872 17.752 51.736 17.128C52.616 16.504 53.056 15.848 53.056 15.16C53.056 14.936 52.944 14.824 52.72 14.824C51.728 14.824 50.344 15.696 48.568 17.44C46.808 19.168 45.56 20.72 44.824 22.096C44.76 22.24 44.632 22.312 44.44 22.312C44.264 22.312 44.056 22.152 43.816 21.832C43.592 21.512 43.48 21.184 43.48 20.848C43.48 20.512 43.536 20.224 43.648 19.984C45.264 16.72 46.784 13.904 48.208 11.536C49.648 9.168 50.888 7.288 51.928 5.896C52.968 4.488 54.056 3.296 55.192 2.32C56.328 1.328 57.328 0.831999 58.192 0.831999C58.944 0.831999 59.32 1.28 59.32 2.176C59.32 3.36 58.896 4.656 58.048 6.064C57.2 7.456 56.264 8.624 55.24 9.568C53.784 10.928 52.656 11.608 51.856 11.608C51.552 11.608 51.4 11.528 51.4 11.368L51.544 11.152C53.112 10.064 54.352 8.808 55.264 7.384C56.192 5.96 56.656 4.96 56.656 4.384C56.656 4.048 56.52 3.88 56.248 3.88C55.672 3.88 54.752 4.736 53.488 6.448C52.24 8.16 51.12 9.936 50.128 11.776C49.152 13.616 48.664 14.752 48.664 15.184C48.664 15.392 48.76 15.496 48.952 15.496C49.096 15.496 49.264 15.408 49.456 15.232C49.664 15.056 49.952 14.832 50.32 14.56C50.688 14.272 51.36 13.896 52.336 13.432C53.312 12.968 54.184 12.736 54.952 12.736C55.736 12.736 56.128 13.104 56.128 13.84C56.128 14.448 55.896 15.032 55.432 15.592C54.968 16.152 54.456 16.6 53.896 16.936C53.336 17.272 52.816 17.616 52.336 17.968C51.856 18.304 51.608 18.584 51.592 18.808C51.56 19.256 51.544 19.664 51.544 20.032C51.544 20.4 51.568 20.848 51.616 21.376C51.664 21.888 51.72 22.344 51.784 22.744C51.912 23.368 52.048 24 52.192 24.64L52.264 24.928ZM59.5 21.16L59.548 20.656C59.548 20.528 59.5 20.464 59.404 20.464C59.26 20.464 58.964 20.672 58.516 21.088C58.084 21.504 57.532 21.92 56.86 22.336C56.204 22.768 55.54 22.984 54.868 22.984C54.212 22.984 53.884 22.496 53.884 21.52C53.884 20.304 54.412 18.904 55.468 17.32C56.012 16.52 56.636 15.784 57.34 15.112C58.06 14.424 58.932 13.864 59.956 13.432C60.98 12.984 62.052 12.76 63.172 12.76C63.764 12.76 64.268 12.92 64.684 13.24C65.1 13.544 65.308 13.928 65.308 14.392C65.308 14.84 65.172 15.064 64.9 15.064C64.756 15.064 64.564 14.976 64.324 14.8C63.876 14.496 63.172 14.344 62.212 14.344C60.948 14.344 59.748 14.92 58.612 16.072C57.492 17.208 56.932 18.336 56.932 19.456C56.932 19.6 56.972 19.736 57.052 19.864C57.148 19.992 57.276 20.056 57.436 20.056C57.916 20.056 58.532 19.728 59.284 19.072C60.036 18.4 60.772 17.44 61.492 16.192C61.54 16.048 61.716 15.912 62.02 15.784C62.324 15.656 62.684 15.592 63.1 15.592C63.692 15.64 63.988 15.768 63.988 15.976C63.988 15.992 63.924 16.096 63.796 16.288C63.684 16.464 63.476 16.792 63.172 17.272C62.868 17.752 62.436 18.544 61.876 19.648C61.332 20.736 61.012 21.6 60.916 22.24C60.9 22.432 60.82 22.528 60.676 22.528C59.892 22.528 59.5 22.072 59.5 21.16Z" fill="black"/>
</svg>
