<?xml version="1.0" standalone="no"?>
<!DOCTYPE svg PUBLIC "-//W3C//DTD SVG 20010904//EN"
 "http://www.w3.org/TR/2001/REC-SVG-20010904/DTD/svg10.dtd">
<svg version="1.0" xmlns="http://www.w3.org/2000/svg"
 width="434.000000pt" height="434.000000pt" viewBox="0 0 434.000000 434.000000"
 preserveAspectRatio="xMidYMid meet">

<g transform="translate(0.000000,434.000000) scale(0.100000,-0.100000)"
fill="#000000" stroke="none">
<path d="M2675 3871 c-55 -32 -324 -185 -598 -341 -534 -304 -580 -336 -671
-464 -103 -145 -147 -283 -147 -461 -1 -143 21 -239 81 -360 98 -198 292 -358
499 -410 72 -18 243 -34 371 -35 71 -1 82 -3 68 -13 -9 -7 -142 -85 -295 -173
-266 -152 -282 -163 -374 -254 -86 -85 -102 -107 -147 -200 -28 -58 -58 -139
-67 -180 -22 -95 -22 -252 -1 -348 17 -78 80 -226 93 -219 151 86 1045 602
1178 680 296 173 441 431 422 747 -22 346 -258 636 -586 721 -50 13 -139 23
-261 30 -101 6 -186 11 -187 12 -1 2 89 54 200 116 334 189 395 234 483 358
165 230 194 534 77 796 -14 31 -28 57 -32 57 -3 -1 -51 -27 -106 -59z"/>
</g>
</svg>
